<?xml version="1.0" encoding="UTF-8" standalone="no"?>
<!-- Created with Inkscape (http://www.inkscape.org/) -->

<svg
   version="1.1"
   id="svg1"
   width="793.70081"
   height="1122.5197"
   viewBox="0 0 793.70081 1122.5197"
   sodipodi:docname="k.svg"
   inkscape:version="1.3.2 (091e20e, 2023-11-25, custom)"
   xmlns:inkscape="http://www.inkscape.org/namespaces/inkscape"
   xmlns:sodipodi="http://sodipodi.sourceforge.net/DTD/sodipodi-0.dtd"
   xmlns="http://www.w3.org/2000/svg"
   xmlns:svg="http://www.w3.org/2000/svg">
  <defs
     id="defs1" />
  <sodipodi:namedview
     id="namedview1"
     pagecolor="#ffffff"
     bordercolor="#000000"
     borderopacity="0.25"
     inkscape:showpageshadow="2"
     inkscape:pageopacity="0.0"
     inkscape:pagecheckerboard="0"
     inkscape:deskcolor="#d1d1d1"
     inkscape:zoom="0.34609641"
     inkscape:cx="-21.670263"
     inkscape:cy="663.11004"
     inkscape:window-width="1920"
     inkscape:window-height="991"
     inkscape:window-x="-9"
     inkscape:window-y="-9"
     inkscape:window-maximized="1"
     inkscape:current-layer="g1">
    <inkscape:page
       x="0"
       y="0"
       inkscape:label="1"
       id="page1"
       width="793.70081"
       height="1122.5197"
       margin="0"
       bleed="0" />
  </sodipodi:namedview>
  <g
     id="g1"
     inkscape:groupmode="layer"
     inkscape:label="1">
    <path
       id="path1"
       d="m 923.62282,560.34863 c 0,308.75094 -250.28122,559.05187 -559.05187,559.05187 -308.750924,0 -559.05185,-250.30093 -559.05185,-559.05187 0,-308.75092 250.300926,-559.0518667 559.05185,-559.0518667 308.77065,0 559.05187,250.3009467 559.05187,559.0518667 z"
       style="fill:#000000;fill-opacity:1;fill-rule:nonzero;stroke:none;stroke-width:6.57406" />
    <path
       id="path2"
       d="m 99.629588,560.34863 c 0,375.7012 -104.4684329,680.26457 -233.300388,680.26457 -128.8385,0 -233.28067,-304.56337 -233.28067,-680.26457 0,-375.69462 104.44217,-680.25789 233.28067,-680.25789 128.8319551,0 233.300388,304.56327 233.300388,680.25789 z"
       style="fill:#ffffff;fill-opacity:1;fill-rule:nonzero;stroke:none;stroke-width:6.57406" />
    <path
       id="path3"
       d="m 1189.4583,560.34863 c 0,151.45986 -173.0031,274.23708 -386.43012,274.23708 -213.42701,0 -386.43008,-122.77722 -386.43008,-274.23708 0,-151.45987 173.00307,-274.23709 386.43008,-274.23709 213.42702,0 386.43012,122.77722 386.43012,274.23709 z"
       style="fill:#ffffff;fill-opacity:1;fill-rule:nonzero;stroke:none;stroke-width:6.57406" />
    <path
       id="path4"
       d="M 453.9848,200.62898 C 403.21989,350.59654 322.01704,458.63471 272.65896,441.91686 223.28118,425.22531 224.40534,290.06913 275.17684,140.10157 325.94833,-9.8725746 407.1183,-117.93046 456.50268,-101.21918 c 49.35808,16.717829 48.22733,151.84772 -2.51788,301.84816 z"
       style="fill:#ffffff;fill-opacity:1;fill-rule:nonzero;stroke:none;stroke-width:6.57406" />
    <path
       id="path5"
       d="m 455.22074,1008.8248 c 44.06593,152.104 39.21429,287.1552 -10.86694,301.6641 -50.04835,14.5089 -126.36667,-97.0465 -170.43261,-249.1242 -44.06597,-152.07788 -39.188,-287.12889 10.86037,-301.63784 50.07463,-14.50897 126.37321,97.02003 170.43918,249.09794 z"
       style="fill:#ffffff;fill-opacity:1;fill-rule:nonzero;stroke:none;stroke-width:6.57406" />
  </g>
</svg>
